# xmcd
#
# Track frame offsets:
#	150
#	17401
#	37681
#	53207
#	71624
#	88442
#	105305
#	124149
#	142184
#	160705
#
# Disc length: 2369 seconds
# Revision: 0
# Processed by: cddbd v1.5.2PL0 Copyright (c) Steve Scherf et al.
# Submitted via: dBpowerAMP V12.0
#
DISCID=7e093f0a
DTITLE=Chloe Chadwick - Dustbowl Jukebox
DYEAR=2017
DGENRE=Pop Rock
TTITLE0=Love Will Find A Way
TTITLE1=Big River
TTITLE2=Strangers World
TTITLE3=IAMNOTAMACHINE
TTITLE4=Summertime Lovin
TTITLE5=Don't Be Shy
TTITLE6=Plain Old Jane
TTITLE7=I'm The One (wearing hearts)
TTITLE8=Never Change
TTITLE9=Good Enough To Try
EXTD=
EXTT0=
EXTT1=
EXTT2=
EXTT3=
EXTT4=
EXTT5=
EXTT6=
EXTT7=
EXTT8=
EXTT9=
PLAYORDER=
